<svg width="54" height="54" viewBox="0 0 54 54" fill="none" xmlns="http://www.w3.org/2000/svg">
<path d="M6.75 42.75H2.25V40.5C2.25 36.3064 5.11823 32.7825 9 31.7835M13.5 24.3659C10.8783 23.4394 9 20.939 9 18C9 15.061 10.8783 12.5607 13.5 11.6341M47.25 42.75H51.75V40.5C51.75 36.3064 48.8817 32.7825 45 31.7835M40.5 11.6341C43.1217 12.5607 45 15.061 45 18C45 20.939 43.1217 23.4394 40.5 24.3659M22.5 31.5H31.5C36.4705 31.5 40.5 35.5295 40.5 40.5V42.75H13.5V40.5C13.5 35.5295 17.5294 31.5 22.5 31.5ZM33.75 18C33.75 21.7279 30.728 24.75 27 24.75C23.272 24.75 20.25 21.7279 20.25 18C20.25 14.2721 23.272 11.25 27 11.25C30.728 11.25 33.75 14.2721 33.75 18Z" stroke="#31CBF4" stroke-width="3" stroke-linecap="round" stroke-linejoin="round"/>
</svg>
